<?xml version="1.0" encoding="UTF-8" standalone="no"?>
<svg
   xmlns:dc="http://purl.org/dc/elements/1.1/"
   xmlns:cc="http://creativecommons.org/ns#"
   xmlns:rdf="http://www.w3.org/1999/02/22-rdf-syntax-ns#"
   xmlns:svg="http://www.w3.org/2000/svg"
   xmlns="http://www.w3.org/2000/svg"
   xmlns:sodipodi="http://sodipodi.sourceforge.net/DTD/sodipodi-0.dtd"
   xmlns:inkscape="http://www.inkscape.org/namespaces/inkscape"
   sodipodi:docname="StuckInALoop.svg"
   inkscape:version="1.0 (4035a4fb49, 2020-05-01)"
   id="svg8"
   version="1.1"
   viewBox="0 0 297 210"
   height="210mm"
   width="297mm">
  <defs
     id="defs2" />
  <sodipodi:namedview
     inkscape:window-maximized="1"
     inkscape:window-y="-8"
     inkscape:window-x="2552"
     inkscape:window-height="1577"
     inkscape:window-width="3840"
     showgrid="false"
     inkscape:document-rotation="0"
     inkscape:current-layer="layer1"
     inkscape:document-units="mm"
     inkscape:cy="560"
     inkscape:cx="400"
     inkscape:zoom="0.35"
     inkscape:pageshadow="2"
     inkscape:pageopacity="0.0"
     borderopacity="1.0"
     bordercolor="#666666"
     pagecolor="#ffffff"
     id="base" />
  <metadata
     id="metadata5">
    <rdf:RDF>
      <cc:Work
         rdf:about="">
        <dc:format>image/svg+xml</dc:format>
        <dc:type
           rdf:resource="http://purl.org/dc/dcmitype/StillImage" />
        <dc:title></dc:title>
      </cc:Work>
    </rdf:RDF>
  </metadata>
  <g
     id="layer1"
     inkscape:groupmode="layer"
     inkscape:label="Layer 1">
    <g
       style="font-size:50.8px;line-height:1.25;font-family:akaPotsley;-inkscape-font-specification:akaPotsley;stroke-width:0.264583"
       id="text12"
       aria-label="STUCK IN A LOOP">
      <path
         id="path14"
         style="font-style:normal;font-variant:normal;font-weight:normal;font-stretch:normal;font-size:22.5778px;font-family:RupturedSans;-inkscape-font-specification:RupturedSans;stroke-width:0.264583"
         d="m 25.968084,51.464418 v -3.883381 q 0,-0.203201 -0.06773,-0.587023 -0.04516,-0.383823 -0.180623,-0.767646 -0.135467,-0.4064 -0.361245,-0.722489 -0.2032,-0.316089 -0.519289,-0.383823 l -2.957692,6.118584 v 0.225778 z m -0.180622,5.689606 v -1.467557 q 0,-0.699912 -0.564446,-1.286935 -0.541867,-0.587022 -1.264356,-1.061156 -0.699912,-0.474134 -1.399824,-0.835379 -0.699912,-0.361245 -0.993423,-0.564445 -0.04516,0.09031 -0.112889,0.225778 -0.06773,0.112889 -0.04516,0.2032 z m 0.06773,4.560716 q 0,-0.06773 0.04516,-0.541867 0.04516,-0.474134 0.04516,-1.106313 0.02258,-0.632178 -0.04516,-1.286934 -0.06773,-0.677334 -0.270934,-1.12889 -0.270934,-0.564445 -0.903112,-1.241779 -0.609601,-0.677334 -1.33209,-1.309513 -0.699912,-0.654756 -1.354668,-1.196623 -0.654757,-0.564445 -1.016001,-0.903112 0.04516,-0.158045 0.112889,-0.293512 0.09031,-0.158044 0.135466,-0.293511 -0.225778,-0.06773 -0.541867,-0.293512 -0.316089,-0.225778 -0.361245,-0.428978 -0.04516,-0.225778 -0.09031,-0.564445 -0.02258,-0.338667 -0.04516,-0.632178 0,-0.316089 0,-0.541867 0,-0.248356 0,-0.31609 0,-0.06773 -0.02258,-0.270933 0,-0.225778 0.04516,-0.451556 0.04516,-0.225778 0.158045,-0.406401 0.135467,-0.180622 0.428978,-0.180622 0.158045,0 0.316089,0.2032 0.180623,0.180623 0.225778,0.361245 0.112889,0.745067 0.112889,1.512713 0.02258,0.767645 0.06773,1.33209 l 1.941691,-6.502407 q -0.31609,-0.135467 -0.835379,-0.158044 -0.519289,-0.02258 -0.835379,-0.02258 -0.06773,0 -0.316089,0.02258 -0.225778,0 -0.541867,0.02258 -0.316089,0.02258 -0.654756,0.04516 -0.316089,0 -0.564445,0 l -0.09031,-0.06773 0.835378,9.076276 q 0.135467,-0.04516 0.180623,-0.135467 0.04516,-0.09031 0.06773,-0.180623 0.02258,-0.112889 0.04516,-0.2032 0.02258,-0.09031 0.112889,-0.135467 0.04516,0.112889 0.06773,0.225778 0.04516,0.09031 0.04516,0.203201 0,0.04516 -0.06773,0.2032 -0.06773,0.135467 -0.158044,0.338667 -0.06773,0.180622 -0.180623,0.383822 -0.09031,0.203201 -0.158044,0.361245 L 18.72061,45.842546 h -0.225778 q -0.406401,0 -0.790223,0.248356 -0.383823,0.225778 -0.699912,0.587022 -0.293511,0.338667 -0.474134,0.790224 -0.158044,0.428978 -0.112889,0.835378 0.02258,0.293512 -0.02258,0.587023 -0.04515,0.270934 -0.09031,0.519289 l -0.06773,2.822225 q 0,0.857957 0.158044,1.44498 0.158045,0.564445 0.564445,1.061156 0.406401,0.474134 1.106313,0.948268 0.722489,0.474134 1.851379,1.106312 0.09031,0.04516 0.112889,0.135467 0.04516,0.09031 0.158045,0.158045 0.09031,0.06773 0.248356,0.158044 0.180622,0.06773 0.338667,0.180623 0.180622,0.112889 0.338667,0.248355 0.158044,0.112889 0.2032,0.248356 0.09031,0.248356 0.112889,0.587023 0.02258,0.316089 0.02258,0.632178 0,0.31609 -0.02258,0.564446 -0.02258,0.225778 -0.02258,0.270933 0,0.225778 0.02258,0.677334 0.02258,0.428978 -0.02258,0.857957 -0.02258,0.428978 -0.158044,0.767645 -0.112889,0.316089 -0.428979,0.316089 -0.180622,0 -0.428978,-0.158045 -0.225778,-0.180622 -0.225778,-0.383822 V 57.695891 H 19.6463 l -2.370669,7.676453 q 0.09031,0.158044 0.587022,0.270933 0.51929,0.09031 1.151468,0.135467 0.632179,0.04516 1.219202,0.06773 0.6096,0.02258 0.880534,0.02258 h 1.467557 L 21.204168,55.325222 q 0,-0.06773 -0.02258,-0.135467 0,-0.06773 0.04516,-0.112889 l 1.964268,9.934233 q 0.92569,-0.112889 1.44498,-0.428979 0.541867,-0.316089 0.8128,-0.767645 0.270934,-0.451556 0.338668,-0.993423 0.06773,-0.541867 0.06773,-1.106312 z m -6.276629,-4.176893 h -3.522137 v 4.222048 q 0,0.338667 0,0.767646 0,0.4064 0.04516,0.835378 0.06773,0.428978 0.2032,0.812801 0.158045,0.383823 0.428978,0.654756 z m 1.64818,-2.551292 h -0.112889 v -0.225778 h 0.112889 z" />
      <path
         id="path16"
         style="font-style:normal;font-variant:normal;font-weight:normal;font-stretch:normal;font-size:22.5778px;font-family:RupturedSans;-inkscape-font-specification:RupturedSans;stroke-width:0.264583"
         d="M 37.205831,48.326104 V 44.8717 l -1.241779,-0.02258 -0.677334,0.04516 -1.580446,3.522137 -0.812801,1.670757 1.919114,4.447827 0.09031,-0.04516 v -6.16374 z m -3.18347,-3.115737 -0.09031,-0.270933 h -5.825072 l -0.09031,2.957692 0.112889,0.428978 h 1.964269 v 5.621872 l 2.009424,-0.699912 0.158045,0.06773 -0.04516,-2.528714 0.654757,-2.077157 z M 35.173829,66.0271 34.925474,55.934823 34.812585,54.9414 32.667693,50.538728 32.419338,51.283796 34.65454,66.0271 Z m -1.580446,0 -1.264357,-12.553257 H 32.012937 L 30.13898,54.9414 29.980935,55.392956 V 66.0271 Z" />
      <path
         id="path18"
         style="font-style:normal;font-variant:normal;font-weight:normal;font-stretch:normal;font-size:22.5778px;font-family:RupturedSans;-inkscape-font-specification:RupturedSans;stroke-width:0.264583"
         d="m 48.815761,49.026016 v -3.928538 q -0.02258,0.06773 -0.225778,0.09031 -0.203201,0 -0.474134,-0.02258 -0.270934,-0.02258 -0.541867,-0.04516 -0.270934,-0.02258 -0.428979,-0.02258 h -2.46098 v 4.809072 z m -0.632179,0.428978 q -1.016001,0.248356 -2.032002,0.474134 -1.016001,0.2032 -2.032002,0.4064 -0.04516,0.04516 -0.06773,0.112889 -0.02258,0.04516 -0.06773,0.09031 v 2.077158 q 0,0.06773 -0.02258,0.270934 -0.02258,0.180622 -0.04516,0.4064 -0.02258,0.225778 -0.04516,0.428978 -0.02258,0.180623 -0.02258,0.248356 v 1.693335 h 4.131738 z m -4.854227,0.790223 v -5.215472 h -4.041426 l -0.180623,6.073428 z m 4.786494,6.231473 v -0.519289 q -0.112889,0 -0.248356,-0.04516 -0.112889,-0.04516 -0.248356,-0.04516 l -3.635026,0.158045 q -0.04516,0.225778 -0.04516,0.428978 0,0.2032 0.04516,0.361245 z m -5.350939,-5.825073 -4.31236,0.948268 q -0.04516,1.106312 -0.06773,2.077158 -0.02258,0.970845 -0.04516,1.986846 l 0.135467,0.04516 h 4.086582 z m 5.486406,6.457251 h -4.267205 l -0.248356,4.921961 q 1.061157,-1.016001 2.212625,-2.099735 1.174046,-1.106313 2.212624,-2.257781 0.09031,-0.09031 0.06773,-0.270933 -0.02258,-0.2032 0.02258,-0.293512 z M 42.697177,56.860513 V 56.07029 h -2.235203 q -0.06773,0 -0.248356,0.02258 -0.180622,0 -0.428978,0.02258 -0.225778,0 -0.474134,0.02258 -0.225778,0 -0.4064,0.02258 -0.135467,0.02258 -0.248356,0.06773 -0.09031,0.04516 -0.225778,-0.135467 v 1.377246 h 0.270934 q 0.112889,0 0.361245,-0.06773 0.248355,-0.06773 0.383822,-0.09031 0.835379,-0.09031 1.64818,-0.180623 0.835378,-0.09031 1.444979,-0.135467 0.04516,-0.04516 0.09031,-0.09031 0.06773,-0.04516 0.06773,-0.04516 z m 5.937961,0.632178 q -1.106312,1.106312 -2.167469,2.190047 -1.061156,1.083734 -2.077157,2.25778 -0.112889,0.135467 -0.158045,0.361245 -0.04516,0.225778 -0.135467,0.338667 -0.112889,0.135466 -0.293511,0.158044 -0.158045,0.02258 -0.225778,0.06773 -0.745068,0.745067 -1.422402,1.580446 -0.677334,0.835378 -1.196623,1.512712 l 3.657604,0.225778 q 0.745067,0 1.422401,-0.06773 0.699912,-0.06773 1.241779,-0.361245 0.541867,-0.316089 0.857957,-0.970845 0.338667,-0.654757 0.383822,-1.85138 z m -5.734761,5.373517 q -0.135467,-0.06773 -0.316089,-0.270934 -0.158045,-0.2032 -0.158045,-0.496712 l 0.270934,-4.605871 q -1.083735,0.04516 -2.144892,0.180622 -1.038578,0.112889 -2.054579,0.248356 -0.04516,0.474134 -0.112889,1.286935 -0.06773,0.790223 -0.135467,1.580446 -0.04516,0.767645 -0.09031,1.377246 -0.02258,0.587023 -0.02258,0.632178 0,0.383823 0.06773,0.857957 0.06773,0.474133 0.270934,0.925689 0.2032,0.451556 0.587023,0.812801 0.4064,0.361245 1.061156,0.51929 z" />
      <path
         id="path20"
         style="font-style:normal;font-variant:normal;font-weight:normal;font-stretch:normal;font-size:22.5778px;font-family:RupturedSans;-inkscape-font-specification:RupturedSans;stroke-width:0.264583"
         d="m 60.755535,48.845393 q -0.04516,-0.338667 -0.09031,-0.722489 -0.02258,-0.406401 -0.135467,-0.790223 -0.09031,-0.383823 -0.293511,-0.72249 -0.180623,-0.361245 -0.541867,-0.632178 -0.135467,-0.09031 -0.31609,-0.158045 -0.180622,-0.09031 -0.383822,-0.135467 -0.180623,-0.04515 -0.338667,-0.06773 -0.135467,-0.04516 -0.180623,-0.04516 h -1.174045 l -2.935114,5.260628 q 0.316089,-0.06773 0.654756,-0.158045 0.361245,-0.09031 0.632178,-0.2032 0,-0.06773 -0.04516,-0.361245 -0.02258,-0.293511 0,-0.6096 0.04516,-0.31609 0.180622,-0.564445 0.158045,-0.248356 0.496712,-0.248356 0.270933,0 0.383822,0.2032 0.135467,0.180622 0.158045,0.428978 0.04516,0.225778 0.02258,0.451556 0,0.2032 0,0.270934 z m -0.338667,3.589871 v -2.506136 l -3.883381,0.812801 q 0.04516,0.857956 0.04516,1.196623 0,0.316089 -0.04516,0.496712 z m -3.635026,-7.224897 q -1.580446,0.04516 -2.506136,0.06773 -0.903112,0 -1.444979,0.180622 -0.519289,0.180623 -0.812801,0.587023 -0.293511,0.4064 -0.654756,1.219201 l 2.77707,2.596447 z m -1.444979,6.750763 v -0.970846 q -0.248356,0.04516 -0.451556,0.09031 -0.180622,0.04516 -0.270934,0.04516 0.09031,0.180623 0.31609,0.428978 0.225778,0.225778 0.4064,0.406401 z m -1.106312,-1.693335 -2.799647,-2.393247 v 5.283205 h 0.338667 q 0.112889,0 0.496711,-0.112889 0.406401,-0.112889 0.654756,-0.158044 0.31609,-0.654757 0.632179,-1.309513 0.338667,-0.654756 0.677334,-1.309512 z m 6.321784,8.602142 v -2.032002 h -1.603024 z m -4.786494,-0.361245 v -5.396094 q -0.316089,-0.31609 -0.654756,-0.632179 -0.316089,-0.316089 -0.609601,-0.564445 -0.248355,0.316089 -0.474133,0.699912 -0.225778,0.361245 -0.428979,0.72249 z m 4.989694,2.573869 q 0,-0.428978 0,-0.654756 0.02258,-0.225778 0,-0.383822 -0.02258,-0.158045 -0.112889,-0.293512 -0.06773,-0.135467 -0.248356,-0.383822 -0.180622,-0.248356 -0.496711,-0.654757 -0.293512,-0.4064 -0.767645,-1.083734 h -2.212625 v 3.770493 l 1.490135,4.131737 H 58.859 q 0.180622,0 0.428978,-0.135467 0.270934,-0.158044 0.51929,-0.4064 0.270933,-0.248356 0.474133,-0.541867 0.203201,-0.31609 0.270934,-0.632179 0.04516,-0.293511 0.09031,-0.677334 0.04516,-0.383822 0.06773,-0.767645 0.02258,-0.383823 0.02258,-0.72249 0.02258,-0.338667 0.02258,-0.564445 z m -3.048003,4.876805 -1.33209,-3.973693 q 0.02258,0.31609 -0.158045,0.564445 -0.158044,0.248356 -0.474133,0.248356 -0.135467,0 -0.361245,-0.135467 -0.203201,-0.158044 -0.203201,-0.4064 0,-0.4064 0.02258,-0.92569 0.02258,-0.541867 0.04516,-1.016001 0.04516,-0.496711 0.06773,-0.857956 0.04516,-0.383823 0.02258,-0.496712 -0.112889,-0.632178 -0.338667,-1.264357 -0.225778,-0.632178 -0.474134,-1.241779 -0.248356,-0.632178 -0.496711,-1.219201 -0.225778,-0.609601 -0.383823,-1.151468 l 0.338667,11.695301 q 0.270934,0.02258 0.654756,0.04516 0.383823,0.02258 0.72249,0.06773 0.361245,0.02258 0.632178,0.04516 0.270934,0.02258 0.338667,0.02258 z M 53.101661,65.394921 V 55.3478 q 0,-0.06773 -0.02258,-0.293511 0,-0.225778 -0.02258,-0.541868 -0.02258,-0.316089 -0.06773,-0.632178 -0.04516,-0.338667 -0.09031,-0.609601 -0.112889,0.225778 -0.361245,0.31609 -0.225778,0.06773 -0.496712,0.112889 -0.248356,0.02258 -0.496711,0.02258 -0.248356,0 -0.406401,0.06773 l -0.632178,8.760186 q 0,0.112889 0.02258,0.474134 0.02258,0.361245 0.04516,0.609601 0.04516,0.428978 0.316089,0.767645 0.270934,0.316089 0.609601,0.541867 0.338667,0.225778 0.699912,0.338667 0.383822,0.112889 0.632178,0.112889 z" />
      <path
         id="path22"
         style="font-style:normal;font-variant:normal;font-weight:normal;font-stretch:normal;font-size:22.5778px;font-family:RupturedSans;-inkscape-font-specification:RupturedSans;stroke-width:0.264583"
         d="m 73.008226,45.616768 v -0.248356 h -3.905959 l -1.309513,7.540985 -0.112889,-0.04516 v -7.540986 h -2.844803 l 2.235202,9.234321 z m -0.745067,1.986846 -4.673605,6.999119 4.222049,-3.996271 z m -5.667028,6.908807 -1.038579,-4.064004 -0.767645,-3.725337 -0.31609,-1.422401 -1.12889,-0.09031 -0.2032,12.666147 2.77707,-2.167469 z m 5.350938,4.854228 -0.903112,-4.809072 0.632179,-2.754492 -4.064004,2.98027 -2.506136,2.05458 -1.557868,1.264357 -0.09031,1.241779 -0.06773,1.603024 3.973693,-0.654757 0.180622,-0.135466 0.203201,-3.635026 0.564445,3.58987 z m 0.790223,6.231473 -1.174045,-5.486406 h -0.474134 l -0.474134,0.180622 -1.106312,0.135467 -1.016001,0.135467 -0.654756,0.158045 0.880534,4.741338 0.180622,0.135467 z m -5.712183,-0.06773 v -4.696182 l -4.086582,0.790223 v 3.905959 z" />
      <path
         id="path24"
         style="font-style:normal;font-variant:normal;font-weight:normal;font-stretch:normal;font-size:22.5778px;font-family:RupturedSans;-inkscape-font-specification:RupturedSans;stroke-width:0.264583"
         d="m 91.072933,47.400414 -0.02258,-2.551291 h -4.018848 v 4.583293 z m 0.699912,0.158045 -2.280358,1.12889 1.896535,10.701877 v -1.670757 l 0.2032,-2.935114 z m -0.316089,17.430062 v -4.131738 l -2.709337,-11.401789 -0.564445,9.076276 1.332091,6.457251 z m -2.754492,0.609601 -1.038579,-6.344363 0.903112,-9.076275 -1.53529,0.677334 -0.09031,0.316089 -0.248355,14.427215 z" />
      <path
         id="path26"
         style="font-style:normal;font-variant:normal;font-weight:normal;font-stretch:normal;font-size:22.5778px;font-family:RupturedSans;-inkscape-font-specification:RupturedSans;stroke-width:0.264583"
         d="m 103.59021,47.039169 -0.0226,-2.235202 h -3.589868 v 6.728185 l 3.522138,-3.341515 z m -0.0452,6.344362 v -4.696182 l -3.589866,3.341514 -0.09031,1.693335 v 0.203201 h 0.564447 z m -4.289778,-1.444979 -1.33209,-7.179741 h -4.131737 v 12.372635 l 5.44125,-4.944538 z m 0.338667,2.05458 -0.293511,-1.377246 -1.964269,1.783646 h 0.293512 z m 3.815651,9.392365 v -9.640721 l -3.61245,0.609601 0.02258,1.106312 -0.180622,-0.993423 -2.483558,0.338667 -3.499559,3.070581 v 7.69903 h 3.454403 l 0.180623,-9.234321 1.715913,9.369788 h 4.244623 l 0.0677,-0.383823 -5.396098,-9.166587 0.04516,-0.09031 z" />
      <path
         id="path28"
         style="font-style:normal;font-variant:normal;font-weight:normal;font-stretch:normal;font-size:22.5778px;font-family:RupturedSans;-inkscape-font-specification:RupturedSans;stroke-width:0.264583"
         d="m 123.86225,44.487878 -2.30294,-0.02258 -0.31609,0.72249 1.67076,7.066851 z m 4.96712,21.290866 -2.48356,-19.868465 h -2.39325 l -0.85796,7.947386 0.36125,1.286935 0.31609,-3.544715 h 0.0451 l 0.51929,7.179741 1.89654,6.999118 z m -6.0057,-11.040545 -1.80622,-8.556986 -1.71592,9.798765 z m 2.55129,10.069699 v -0.338667 l -1.78364,-6.77334 h -0.49672 l 0.0903,0.812801 -0.0903,2.370669 0.8128,0.180623 0.36125,3.747914 z m -2.37067,-6.524984 -0.58702,-0.112889 0.33867,-2.551291 -0.0903,-0.406401 -3.40925,1.264357 -1.39983,8.444097 v 0.474134 l 0.11289,-0.112889 3.58987,0.112889 0.49672,-3.544714 0.15804,-0.270934 0.58702,-0.04516 z" />
      <path
         id="path30"
         style="font-style:normal;font-variant:normal;font-weight:normal;font-stretch:normal;font-size:22.5778px;font-family:RupturedSans;-inkscape-font-specification:RupturedSans;stroke-width:0.264583"
         d="m 148.68831,45.707079 h -1.49014 l -0.54186,4.492982 1.89653,3.544715 z m -0.45156,14.946504 v -6.683029 l -2.09973,-3.499559 -0.0452,0.270934 -0.11289,-0.112889 0.51929,-5.870229 h -2.52871 l 0.18062,8.782765 1.85138,-2.596447 v 0.970845 z m 0.92569,5.260628 -0.85795,-3.251204 -0.38383,-0.04516 v -1.535291 l -2.032,-9.144009 -0.88053,1.151468 -1.26436,1.467557 -0.56444,9.685876 v 1.535291 l 3.2512,0.2032 -0.88054,-11.176011 1.44498,11.108278 z m 1.51272,-0.158045 v -3.251203 h -1.96427 l 0.94826,3.251203 z" />
      <path
         id="path32"
         style="font-style:normal;font-variant:normal;font-weight:normal;font-stretch:normal;font-size:22.5778px;font-family:RupturedSans;-inkscape-font-specification:RupturedSans;stroke-width:0.264583"
         d="m 162.40503,49.048594 q 0,-0.632179 -0.0677,-1.309513 -0.0452,-0.699912 -0.42898,-1.33209 -0.0452,-0.09031 -0.24835,-0.270934 -0.18063,-0.180622 -0.42898,-0.361245 -0.24836,-0.180622 -0.54187,-0.293511 -0.27093,-0.135467 -0.49671,-0.135467 h -0.99342 l -0.99343,3.70276 v 3.409247 q 0,0.135467 0.42898,0.564445 0.42898,0.428979 1.03858,0.993424 0.6096,0.564445 1.28694,1.174045 0.69991,0.587023 1.24177,1.061157 z m -3.56729,-3.973693 h -1.85138 q -0.4064,0 -0.94827,0 -0.51928,-0.02258 -1.06115,0.135466 -0.51929,0.158045 -0.97085,0.587023 -0.45155,0.428978 -0.67733,1.286935 l 3.8608,4.628449 q 0,-0.338667 0,-0.745067 0,-0.406401 0.0226,-0.812801 0.0226,-0.406401 0.0677,-0.790223 0.0452,-0.383823 0.13547,-0.699912 0.0452,-0.158045 0.27093,-0.248356 0.24836,-0.09031 0.36125,-0.06773 z m -2.61902,6.953962 -3.79307,-4.854227 q -0.13547,1.670757 -0.24836,3.160892 -0.11289,1.467557 -0.2032,2.822225 -0.0677,1.354668 -0.11289,2.619025 -0.0226,1.241779 -0.0226,2.46098 0.58703,-0.519289 1.17405,-1.016001 0.6096,-0.496711 1.15147,-1.016001 0.24835,-0.225778 0.54186,-0.496711 0.31609,-0.293512 0.58703,-0.564445 0.29351,-0.270934 0.49671,-0.496712 0.22578,-0.248356 0.27093,-0.383822 0.11289,-0.270934 0.13547,-0.564445 0.0226,-0.293512 0.0226,-0.587023 0,-0.293512 -0.0226,-0.564445 -0.0226,-0.293512 0.0226,-0.51929 z m 5.91538,11.176012 v -6.660452 q -0.99342,-0.903112 -2.07716,-1.783646 -1.06115,-0.903112 -2.12231,-1.783646 v 1.53529 q 0,0.745068 0.11289,1.535291 0.13547,0.790223 0.29351,1.580446 0.18062,0.767645 0.36125,1.490135 0.2032,0.699912 0.31608,1.264357 0.11289,0.474133 0.24836,1.083734 0.13547,0.609601 0.27093,1.264357 0.15805,0.654756 0.27094,1.286934 0.13546,0.632179 0.24835,1.174046 0.0226,0.09031 0.0903,0.2032 0.0903,0.09031 0.13547,0.06773 0.42898,-0.06773 0.76765,-0.338667 0.33866,-0.270934 0.58702,-0.609601 0.24836,-0.361245 0.36124,-0.699912 0.13547,-0.361245 0.13547,-0.6096 z m -2.37067,2.66418 -1.73849,-9.414943 -0.15804,5.554139 q 0.0677,0.270934 -0.2032,0.496712 -0.24836,0.2032 -0.42898,0.2032 -0.33867,0 -0.47414,-0.2032 -0.13546,-0.2032 -0.15804,-0.451556 0,-0.270934 0.0226,-0.51929 0.0451,-0.248355 0.0451,-0.361244 v -3.725338 l -1.96427,8.42152 q 1.44498,0.112889 2.77707,0.135467 1.33209,0 2.28036,-0.135467 z m -2.95769,-10.16001 V 54.01571 l -4.19947,4.492982 v 3.296359 q 0,0.06773 0.0226,0.248356 0.0226,0.180622 0.0677,0.428978 0.0452,0.225778 0.0903,0.474134 0.0677,0.248356 0.15805,0.451556 0.0677,0.135467 0.22577,0.338667 0.18063,0.2032 0.29352,0.316089 0.22577,0.180622 0.56444,0.361245 0.33867,0.180622 0.45156,0.180622 h 0.27093 z" />
      <path
         id="path34"
         style="font-style:normal;font-variant:normal;font-weight:normal;font-stretch:normal;font-size:22.5778px;font-family:RupturedSans;-inkscape-font-specification:RupturedSans;stroke-width:0.264583"
         d="m 175.06095,49.048594 q 0,-0.632179 -0.0677,-1.309513 -0.0452,-0.699912 -0.42898,-1.33209 -0.0452,-0.09031 -0.24836,-0.270934 -0.18062,-0.180622 -0.42898,-0.361245 -0.24835,-0.180622 -0.54186,-0.293511 -0.27094,-0.135467 -0.49672,-0.135467 h -0.99342 l -0.99342,3.70276 v 3.409247 q 0,0.135467 0.42898,0.564445 0.42897,0.428979 1.03858,0.993424 0.6096,0.564445 1.28693,1.174045 0.69991,0.587023 1.24178,1.061157 z m -3.56729,-3.973693 h -1.85138 q -0.4064,0 -0.94827,0 -0.51929,-0.02258 -1.06116,0.135466 -0.51929,0.158045 -0.97084,0.587023 -0.45156,0.428978 -0.67734,1.286935 l 3.86081,4.628449 q 0,-0.338667 0,-0.745067 0,-0.406401 0.0226,-0.812801 0.0226,-0.406401 0.0677,-0.790223 0.0452,-0.383823 0.13546,-0.699912 0.0452,-0.158045 0.27094,-0.248356 0.24835,-0.09031 0.36124,-0.06773 z m -2.61903,6.953962 -3.79307,-4.854227 q -0.13547,1.670757 -0.24835,3.160892 -0.11289,1.467557 -0.20321,2.822225 -0.0677,1.354668 -0.11288,2.619025 -0.0226,1.241779 -0.0226,2.46098 0.58702,-0.519289 1.17404,-1.016001 0.6096,-0.496711 1.15147,-1.016001 0.24836,-0.225778 0.54187,-0.496711 0.31609,-0.293512 0.58702,-0.564445 0.29351,-0.270934 0.49671,-0.496712 0.22578,-0.248356 0.27094,-0.383822 0.11289,-0.270934 0.13546,-0.564445 0.0226,-0.293512 0.0226,-0.587023 0,-0.293512 -0.0226,-0.564445 -0.0226,-0.293512 0.0226,-0.51929 z m 5.91539,11.176012 v -6.660452 q -0.99343,-0.903112 -2.07716,-1.783646 -1.06116,-0.903112 -2.12232,-1.783646 v 1.53529 q 0,0.745068 0.11289,1.535291 0.13547,0.790223 0.29351,1.580446 0.18063,0.767645 0.36125,1.490135 0.2032,0.699912 0.31609,1.264357 0.11289,0.474133 0.24835,1.083734 0.13547,0.609601 0.27094,1.264357 0.15804,0.654756 0.27093,1.286934 0.13547,0.632179 0.24836,1.174046 0.0226,0.09031 0.0903,0.2032 0.0903,0.09031 0.13547,0.06773 0.42897,-0.06773 0.76764,-0.338667 0.33867,-0.270934 0.58702,-0.609601 0.24836,-0.361245 0.36125,-0.699912 0.13547,-0.361245 0.13547,-0.6096 z m -2.37067,2.66418 -1.73849,-9.414943 -0.15805,5.554139 q 0.0677,0.270934 -0.2032,0.496712 -0.24836,0.2032 -0.42898,0.2032 -0.33866,0 -0.47413,-0.2032 -0.13547,-0.2032 -0.15805,-0.451556 0,-0.270934 0.0226,-0.51929 0.0452,-0.248355 0.0452,-0.361244 v -3.725338 l -1.96427,8.42152 q 1.44498,0.112889 2.77707,0.135467 1.33209,0 2.28036,-0.135467 z m -2.9577,-10.16001 V 54.01571 l -4.19947,4.492982 v 3.296359 q 0,0.06773 0.0226,0.248356 0.0226,0.180622 0.0677,0.428978 0.0452,0.225778 0.0903,0.474134 0.0677,0.248356 0.15804,0.451556 0.0677,0.135467 0.22578,0.338667 0.18062,0.2032 0.29351,0.316089 0.22578,0.180622 0.56444,0.361245 0.33867,0.180622 0.45156,0.180622 h 0.27093 z" />
      <path
         id="path36"
         style="font-style:normal;font-variant:normal;font-weight:normal;font-stretch:normal;font-size:22.5778px;font-family:RupturedSans;-inkscape-font-specification:RupturedSans;stroke-width:0.264583"
         d="m 186.92664,48.010015 q 0,-1.85138 -0.97085,-2.57387 -0.97084,-0.722489 -2.75449,-0.722489 h -4.01885 l 2.19005,8.466675 0.2032,-3.544715 q 0.0452,-0.428978 0.0677,-0.835378 0.0226,-0.428978 0.0677,-0.857957 0.0903,-0.04516 0.15804,-0.04516 0.0677,0 0.18063,0 0.8128,0 0.8128,0.722489 l -0.11289,3.589871 q 0.65475,-0.338667 1.37724,-0.745068 0.72249,-0.4064 1.37725,-0.745067 0.15804,-0.09031 0.36124,-0.180623 0.2032,-0.09031 0.38383,-0.180622 0.18062,-0.112889 0.31609,-0.2032 0.15804,-0.09031 0.2032,-0.180623 0.0903,-0.180622 0.13546,-0.496711 0.0452,-0.316089 0.0452,-0.609601 0,-0.316089 -0.0226,-0.541867 0,-0.248356 0,-0.316089 z m -0.58702,7.49583 v -4.809072 q -1.016,0.587023 -2.032,1.196623 -0.99343,0.587023 -1.9417,1.151468 -0.0677,0.248356 -0.0451,0.541868 0.0451,0.270933 0.0451,0.541867 0,0.270933 -0.11288,0.496711 -0.11289,0.203201 -0.47414,0.338667 l 0.90311,3.093159 h 1.28694 q 0.54187,0 0.97084,-0.248356 0.45156,-0.248356 0.76765,-0.632178 0.31609,-0.383823 0.47413,-0.812801 0.15805,-0.451556 0.15805,-0.857956 z m -5.01227,-1.64818 -2.37067,-8.579564 q -0.0903,0.02258 -0.33867,0.02258 -0.22578,0 -1.03858,-0.02258 v 10.6793 z m 1.33209,4.763916 q -0.18063,-0.767645 -0.42898,-1.53529 -0.22578,-0.790223 -0.47414,-1.535291 -0.13546,-0.02258 -0.29351,-0.02258 -0.13546,0 -0.2032,-0.04516 0,-0.293512 -0.0226,-0.609601 0,-0.338667 -0.0452,-0.564445 -0.11289,0.04516 -0.24836,0.112889 -0.13546,0.04516 -0.24835,0.112889 -0.0903,0.06773 -0.13547,0.180623 -0.0452,0.112889 -0.11289,0.158044 -0.69991,0.383823 -1.58044,0.812801 -0.85796,0.428978 -1.64818,0.880534 -0.0452,0.225778 -0.0677,0.51929 -0.0226,0.293511 -0.0452,0.564445 -0.0226,0.248355 -0.0452,0.451556 0,0.2032 0,0.248355 v 1.896536 q 0,0.06773 -0.0226,0.248356 0,0.180622 -0.0226,0.428978 0,0.225778 -0.0226,0.474134 -0.0226,0.248355 -0.0452,0.451556 l -0.0452,3.138314 q 0.0903,-0.04516 0.4064,-0.04516 0.33866,0 1.15146,0.04516 0.40641,-2.438403 0.90312,-4.989694 0.49671,-2.551292 1.016,-4.741338 0.0452,-0.04516 0.0452,-0.06773 0.0226,-0.04516 0.0226,-0.04516 l -1.15147,9.843921 h 1.87396 v -6.186318 q 0.2032,-0.158044 0.4064,-0.158044 0.22578,-0.02258 0.4064,0 0.2032,0.02258 0.36125,0.04516 0.18062,0.02258 0.31609,-0.06773 z" />
    </g>
  </g>
</svg>
